<svg xmlns="http://www.w3.org/2000/svg" xml:space="preserve" viewBox="-0.03 0 300.03 272.75">
  <radialGradient id="a" cx="-868.3339" cy="648.2894" r="6.8186" gradientTransform="matrix(-10.9605 -13.3892 -12.5901 10.3064 -1109.839 -18195.2207)" gradientUnits="userSpaceOnUse">
    <stop offset=".0956" style="stop-color:#00aeff"/>
    <stop offset=".7732" style="stop-color:#2253ce"/>
    <stop offset="1" style="stop-color:#0736c4"/>
  </radialGradient>
  <path fill="url(#a)" d="M219.165 22.672C215.218 9.231 202.885 0 188.877 0h-9.215c-15.237 0-28.299 10.883-31.049 25.87l-15.783 86.004 3.917-13.401c3.934-13.46 16.276-22.711 30.3-22.711h53.552l22.459 8.749 21.65-8.749h-6.319c-14.009 0-26.341-9.232-30.289-22.672l-8.935-30.418z"/>
  <radialGradient id="b" cx="-747.9225" cy="698.4118" r="6.8186" gradientTransform="matrix(9.8803 12.5737 12.1968 -9.5842 -1066.5022 16294.3438)" gradientUnits="userSpaceOnUse">
    <stop offset="0" style="stop-color:#ffb657"/>
    <stop offset=".6337" style="stop-color:#ff5f3d"/>
    <stop offset=".9234" style="stop-color:#c02b3c"/>
  </radialGradient>
  <path fill="url(#b)" d="M84.078 249.942c3.904 13.505 16.268 22.801 30.326 22.801h19.571c17.119 0 31.117-13.644 31.557-30.757l2.132-82.929-4.459 15.227c-3.939 13.453-16.278 22.697-30.296 22.697H78.913l-19.251-10.443-20.841 10.443h6.213c14.058 0 26.422 9.296 30.326 22.801l8.718 30.16z"/>
  <linearGradient id="c" x1="88.7554" x2="104.359" y1="252.3619" y2="71.839" gradientTransform="matrix(1 0 0 -1 0 274.7437)" gradientUnits="userSpaceOnUse">
    <stop offset=".1562" style="stop-color:#0d91e1"/>
    <stop offset=".4875" style="stop-color:#52b471"/>
    <stop offset=".6524" style="stop-color:#98bd42"/>
    <stop offset=".9374" style="stop-color:#ffc800"/>
  </linearGradient>
  <path fill="url(#c)" d="M187.507 0H78.141C46.894 0 28.145 41.297 15.646 82.595.838 131.521-18.538 196.956 37.519 196.956h47.223c14.112 0 26.5-9.331 30.379-22.899 8.21-28.724 22.599-78.832 33.901-116.978 5.743-19.385 10.527-36.033 17.87-46.4C171.01 4.867 177.87 0 187.507 0z"/>
  <linearGradient id="d" x1="90.31" x2="98.8296" y1="274.9634" y2="78.0271" gradientTransform="matrix(1 0 0 -1 0 274.7437)" gradientUnits="userSpaceOnUse">
    <stop offset="0" style="stop-color:#3dcbff"/>
    <stop offset=".2467" style="stop-color:#0588f7;stop-opacity:0"/>
  </linearGradient>
  <path fill="url(#d)" d="M187.507 0H78.141C46.894 0 28.145 41.297 15.646 82.595.838 131.521-18.538 196.956 37.519 196.956h47.223c14.112 0 26.5-9.331 30.379-22.899 8.21-28.724 22.599-78.832 33.901-116.978 5.743-19.385 10.527-36.033 17.87-46.4C171.01 4.867 177.87 0 187.507 0z"/>
  <radialGradient id="e" cx="-806.9179" cy="701.84" r="6.8186" gradientTransform="matrix(-12.6711 36.2357 43.4092 15.1796 -40422.7539 18642.0898)" gradientUnits="userSpaceOnUse">
    <stop offset=".0662" style="stop-color:#8c48ff"/>
    <stop offset=".5" style="stop-color:#f2598a"/>
    <stop offset=".8958" style="stop-color:#ffb152"/>
  </radialGradient>
  <path fill="url(#e)" d="M112.493 272.744h109.366c31.247 0 49.995-41.304 62.494-82.609C299.162 141.2 318.538 75.753 262.48 75.753h-47.222c-14.112 0-26.501 9.332-30.379 22.901-8.211 28.729-22.6 78.847-33.902 117-5.744 19.389-10.528 36.039-17.87 46.409-4.116 5.812-10.977 10.681-20.614 10.681z"/>
  <linearGradient id="f" x1="206.5191" x2="206.4072" y1="211.1635" y2="157.5101" gradientTransform="matrix(1 0 0 -1 0 274.7437)" gradientUnits="userSpaceOnUse">
    <stop offset=".0582" style="stop-color:#f8adfa"/>
    <stop offset=".7081" style="stop-color:#a86edd;stop-opacity:0"/>
  </linearGradient>
  <path fill="url(#f)" d="M112.493 272.744h109.366c31.247 0 49.995-41.304 62.494-82.609C299.162 141.2 318.538 75.753 262.48 75.753h-47.222c-14.112 0-26.501 9.332-30.379 22.901-8.211 28.729-22.6 78.847-33.902 117-5.744 19.389-10.528 36.039-17.87 46.409-4.116 5.812-10.977 10.681-20.614 10.681z"/>
</svg>
